<svg xmlns="http://www.w3.org/2000/svg" viewBox="0 0 880 460" width="880" height="460" font-family="ui-monospace,Menlo,monospace" font-size="12">
<rect width="880" height="460" fill="#fafaf9"/>
<text x="70" y="28" font-size="16" font-weight="600" fill="#0c0a09">Throughput, MB/s — total time including JSON.parse</text>
<text x="70" y="46" font-size="11" fill="#57534e">linux-x64 · node v22.21.1 · median of 15 iterations after 5 warmup</text>
<line x1="70" y1="380" x2="856" y2="380" stroke="#e7e5e4" stroke-width="1"/><text x="62" y="384" text-anchor="end" fill="#78716c">0</text><line x1="70" y1="316" x2="856" y2="316" stroke="#e7e5e4" stroke-width="1"/><text x="62" y="320" text-anchor="end" fill="#78716c">140</text><line x1="70" y1="252" x2="856" y2="252" stroke="#e7e5e4" stroke-width="1"/><text x="62" y="256" text-anchor="end" fill="#78716c">280</text><line x1="70" y1="188" x2="856" y2="188" stroke="#e7e5e4" stroke-width="1"/><text x="62" y="192" text-anchor="end" fill="#78716c">420</text><line x1="70" y1="124" x2="856" y2="124" stroke="#e7e5e4" stroke-width="1"/><text x="62" y="128" text-anchor="end" fill="#78716c">560</text><line x1="70" y1="60" x2="856" y2="60" stroke="#e7e5e4" stroke-width="1"/><text x="62" y="64" text-anchor="end" fill="#78716c">700</text><rect x="91.6" y="201.3" width="36.3" height="178.7" fill="#d97706"/><text x="110.8" y="197.3" text-anchor="middle" fill="#0c0a09" font-weight="600">391</text><rect x="129.9" y="306.4" width="36.3" height="73.6" fill="#475569"/><rect x="168.3" y="348.0" width="36.3" height="32.0" fill="#94a3b8"/><rect x="206.6" y="343.9" width="36.3" height="36.1" fill="#cbd5e1"/><text x="168.3" y="398.0" text-anchor="middle" fill="#0c0a09">10KB</text><rect x="288.1" y="80.6" width="36.3" height="299.4" fill="#d97706"/><text x="307.3" y="76.6" text-anchor="middle" fill="#0c0a09" font-weight="600">655</text><rect x="326.4" y="281.7" width="36.3" height="98.3" fill="#475569"/><rect x="364.8" y="313.7" width="36.3" height="66.3" fill="#94a3b8"/><rect x="403.1" y="318.3" width="36.3" height="61.7" fill="#cbd5e1"/><text x="364.8" y="398.0" text-anchor="middle" fill="#0c0a09">100KB</text><rect x="484.6" y="84.2" width="36.3" height="295.8" fill="#d97706"/><text x="503.8" y="80.2" text-anchor="middle" fill="#0c0a09" font-weight="600">647</text><rect x="522.9" y="249.3" width="36.3" height="130.7" fill="#475569"/><rect x="561.3" y="306.4" width="36.3" height="73.6" fill="#94a3b8"/><rect x="599.6" y="361.7" width="36.3" height="18.3" fill="#cbd5e1"/><text x="561.3" y="398.0" text-anchor="middle" fill="#0c0a09">1MB</text><rect x="681.1" y="174.3" width="36.3" height="205.7" fill="#d97706"/><text x="700.3" y="170.3" text-anchor="middle" fill="#0c0a09" font-weight="600">450</text><rect x="719.4" y="301.8" width="36.3" height="78.2" fill="#475569"/><rect x="757.8" y="354.4" width="36.3" height="25.6" fill="#94a3b8"/><rect x="796.1" y="377.7" width="36.3" height="2.3" fill="#cbd5e1"/><text x="757.8" y="398.0" text-anchor="middle" fill="#0c0a09">10MB</text><rect x="70" y="420" width="12" height="12" fill="#d97706"/><text x="88" y="430" fill="#0c0a09">diffcore</text><rect x="154" y="420" width="12" height="12" fill="#475569"/><text x="172" y="430" fill="#0c0a09">fast-json-patch</text><rect x="287" y="420" width="12" height="12" fill="#94a3b8"/><text x="305" y="430" fill="#0c0a09">jsondiffpatch</text><rect x="406" y="420" width="12" height="12" fill="#cbd5e1"/><text x="424" y="430" fill="#0c0a09">deep-diff</text></svg>